# xmcd
#
# Track frame offsets: 
#        150
#        15516
#        27981
#        49652
#        67121
#        83888
#        98959
#        120962
#        132468
#        144346
#        156810
#        176049
#        191317
#
# Disc length: 2683 seconds
#
# Revision: 0
# Processed by: cddbd v1.5.2PL0 Copyright (c) Steve Scherf et al.
# Submitted via: ExactAudioCopy v0.99pb5
#
DISCID=a80a790d
DTITLE=Sarah Jaffe - Suburban Nature
DYEAR=2010
DGENRE=Folk
TTITLE0=Before You Go 
TTITLE1=Stay With Me
TTITLE2=Clementine
TTITLE3=Better Than Nothing
TTITLE4=Vulnerable
TTITLE5=Wreaking Havoc
TTITLE6=Summer Begs
TTITLE7=Pretender Pt. 1
TTITLE8=Pretender
TTITLE9=Luv
TTITLE10=Swelling
TTITLE11=Watch Me Fall Apart
TTITLE12=Perfect Plan
EXTD=
EXTT0=
EXTT1=
EXTT2=
EXTT3=
EXTT4=
EXTT5=
EXTT6=
EXTT7=
EXTT8=
EXTT9=
EXTT10=
EXTT11=
EXTT12=
PLAYORDER=
